<svg width="314" height="86" viewBox="0 0 314 86" fill="none" xmlns="http://www.w3.org/2000/svg">
<path d="M64.0035 35.6632C63.1031 37.189 62.1985 38.7134 61.318 40.2521C60.8622 41.0492 60.8183 41.0605 60.2521 40.1966C59.3319 38.8316 58.474 37.4922 57.5524 36.1983C57.1858 35.6845 57.224 35.303 57.5454 34.7963C58.1598 33.8299 58.6963 32.8136 59.2838 31.8272C59.4409 31.5639 59.3461 31.45 59.1153 31.3561C58.8647 31.2536 58.6014 31.2877 58.3438 31.2877C50.739 31.2877 43.1342 31.2877 35.5295 31.2877C35.3214 31.2877 35.1118 31.2977 34.9052 31.2821C34.6036 31.2593 34.5413 31.1511 34.6942 30.8778C35.0496 30.2402 35.4205 29.6125 35.7829 28.9791C36.4171 27.8703 37.0513 26.7615 37.6812 25.6512C37.8299 25.3893 37.9771 25.247 38.3437 25.2513C38.9369 25.2584 39.53 25.2869 40.1232 25.2854C49.7594 25.2826 59.3956 25.2854 69.0318 25.2869C69.2399 25.2869 69.4494 25.2812 69.6561 25.2911C70.0312 25.3096 70.0822 25.378 69.8925 25.7039C69.2654 26.7857 68.6213 27.8589 67.9828 28.9349C66.655 31.1781 65.3257 33.4199 64.0021 35.6646L64.0035 35.6632ZM8.14264 60.1492C8.9085 58.8155 9.69276 57.4918 10.4714 56.1652C11.9493 53.6473 13.4286 51.1294 14.9051 48.61C15.4714 47.6436 16.0291 46.67 16.5982 45.705C16.8233 45.3235 16.9833 45.3192 17.2069 45.6879C17.558 46.2672 17.8935 46.8565 18.2658 47.4913C18.8929 48.5503 19.479 49.568 20.0962 50.5657C20.2902 50.8789 20.2732 51.128 20.0991 51.4283C19.5767 52.3307 19.0727 53.2445 18.5617 54.154C18.2856 54.6451 18.2885 54.6508 18.8123 54.6679C18.968 54.6736 19.1251 54.6721 19.2808 54.6721C26.8884 54.6721 34.4975 54.6721 42.1051 54.6736C42.2608 54.6736 42.4179 54.6636 42.5736 54.6736C43.0649 54.6992 43.1385 54.8131 42.8865 55.2472C41.9309 56.894 40.9499 58.5252 40.0057 60.1791C39.7919 60.5535 39.5414 60.7072 39.1294 60.6602C38.9496 60.6389 38.7656 60.6574 38.583 60.6574C28.6552 60.6574 18.7287 60.6574 8.80091 60.6574C8.67067 60.6574 8.54043 60.6631 8.4102 60.6574C7.95436 60.6374 7.90057 60.5663 8.13981 60.1507L8.14264 60.1492ZM23.096 30.4437C22.6005 31.292 22.5892 31.2835 21.5784 31.2863C20.5889 31.2892 19.5993 31.292 18.6098 31.3006C18.4258 31.302 18.3026 31.3717 18.4244 31.5895C18.6282 31.9539 18.8222 32.3225 19.0331 32.6826C20.3624 34.9543 21.6959 37.2232 23.028 39.4934C25.058 42.9565 27.0895 46.4195 29.1181 49.8825C29.5527 50.6241 29.9901 51.3657 30.4105 52.1158C30.6186 52.4873 30.3355 52.4887 30.0156 52.4972C28.0946 52.4972 26.2443 52.4859 24.3955 52.5072C23.9538 52.5129 23.6665 52.3862 23.447 51.9905C22.9912 51.1707 22.4943 50.375 22.0172 49.5665C20.4006 46.8294 18.7797 44.0937 17.1687 41.3523C15.8479 39.1048 14.5399 36.8502 13.229 34.5985C11.6024 31.8058 9.97447 29.0132 8.35923 26.2149C8.21059 25.9573 7.885 25.6726 8.05204 25.3922C8.1936 25.1545 8.58573 25.2897 8.86461 25.2897C14.2822 25.2826 19.6999 25.284 25.1175 25.284C25.2732 25.284 25.4303 25.2797 25.5861 25.2897C25.964 25.3139 26.0107 25.3893 25.831 25.7025C24.9221 27.2853 24.0161 28.868 23.096 30.4437ZM30.1996 62.8494C30.2987 62.8252 30.4063 62.8323 30.511 62.8323C32.4377 62.8308 34.3658 62.8337 36.2925 62.8237C36.6152 62.8223 36.8205 62.9276 36.9833 63.2166C37.4193 63.988 37.8865 64.741 38.3352 65.5053C38.6891 66.1107 39.0421 66.1145 39.3941 65.5167C40.9669 62.8437 42.5241 60.162 44.1124 57.4989C46.3944 53.6715 48.5759 49.7857 50.8268 45.8715C51.1991 45.3264 51.26 45.3079 51.5318 45.7306C51.9267 46.3441 52.2891 46.9789 52.6643 47.6037C53.2404 48.5645 53.8067 49.531 54.3984 50.4832C54.632 50.8604 54.6235 51.1564 54.3899 51.5578C52.9191 54.0786 51.4907 56.6264 50.0326 59.1557C48.5094 61.7975 46.972 64.4321 45.4318 67.0653C43.7599 69.922 42.0796 72.773 40.3992 75.6254C39.9632 76.3656 39.5116 77.0986 39.0714 77.8373C38.9355 78.0665 38.801 78.0366 38.658 77.853C38.5943 77.7704 38.5363 77.6836 38.4839 77.5939C37.7846 76.4026 37.0895 75.2098 36.3887 74.0199C34.564 70.9212 32.7378 67.824 30.9088 64.7282C30.6172 64.2343 30.31 63.7503 30.0184 63.2579C29.8952 63.05 29.9759 62.9063 30.201 62.8522L30.1996 62.8494ZM52.6671 58.9693C53.3565 57.7409 54.0657 56.5239 54.7268 55.2813C55.0001 54.7689 55.3582 54.6181 55.9174 54.6394C56.9324 54.6793 57.9488 54.6437 58.9652 54.6394C59.2172 54.6394 59.2979 54.5383 59.1592 54.3035C58.7232 53.5619 58.2914 52.8189 57.8568 52.0759C56.8574 50.3651 55.8565 48.6556 54.8274 46.8963C54.472 46.3754 54.2087 45.8644 53.9171 45.3719C51.7158 41.6455 49.5003 37.9277 47.2919 34.2056C47.1985 34.0491 47.115 33.8854 47.0357 33.7217C46.9593 33.5637 47.0272 33.474 47.1914 33.4612C47.3472 33.4498 47.5043 33.4527 47.66 33.4527C49.2498 33.4527 50.8395 33.4755 52.4279 33.4384C52.9969 33.4256 53.324 33.6277 53.6227 34.1017C54.6631 35.7571 55.7433 37.3868 56.8163 39.0223C57.7464 40.4385 58.7359 41.8178 59.6094 43.2682C61.4384 46.3056 63.2065 49.3815 65.0043 52.4389C66.4837 54.9568 67.9715 57.4705 69.4522 59.9884C69.8373 60.6431 69.8302 60.6474 69.0346 60.656C68.9823 60.656 68.9299 60.656 68.8789 60.656C63.433 60.656 57.987 60.656 52.5411 60.656C52.3854 60.656 52.2283 60.6616 52.0725 60.656C51.846 60.6446 51.8135 60.5136 51.9069 60.34C52.1561 59.8816 52.4109 59.4276 52.6657 58.9721L52.6671 58.9693ZM47.5255 23.0849C47.3995 23.1134 47.2679 23.1205 47.1376 23.1205C45.2095 23.1205 43.2829 23.1091 41.3548 23.1219C41.0193 23.1248 40.8395 23.0009 40.6824 22.7177C40.1373 21.7384 39.5612 20.7762 39.0091 19.8012C38.876 19.5678 38.7925 19.5379 38.658 19.7913C38.5603 19.9749 38.4315 20.1414 38.3267 20.3208C37.0753 22.4572 35.8282 24.598 34.5739 26.733C32.0513 31.0258 29.5243 35.3144 26.972 39.6557C26.8063 39.9275 26.6733 40.151 26.5303 40.3688C26.3958 40.5738 26.2528 40.588 26.1183 40.3659C25.7658 39.7866 25.4176 39.2059 25.0609 38.6294C24.4578 37.6544 23.8647 36.6723 23.2404 35.7115C22.9487 35.2632 22.9459 34.8903 23.2304 34.4191C24.6716 32.0322 26.0858 29.631 27.4943 27.2255C29.1931 24.3247 30.8664 21.4096 32.5665 18.5102C34.53 15.1611 36.5105 11.8204 38.4839 8.47696C38.8519 7.85211 38.8732 7.84072 39.237 8.44565C40.3511 10.2989 41.4666 12.1535 42.5482 14.0252C44.1648 16.8236 45.8098 19.6062 47.4802 22.3718C47.5609 22.5056 47.6359 22.6451 47.6883 22.7903C47.7407 22.934 47.6727 23.0508 47.5241 23.0849H47.5255Z" fill="url(#paint0_linear_343_685)"/>
<path d="M80 21.968H86.1824V39.6528H112.519V21.968H118.702V65.718H112.519V44.8972H86.1824V65.718H80V21.968Z" fill="white"/>
<path d="M132.819 51.4966C133.149 57.4774 137.178 61.8594 143.495 61.8594C148.364 61.8594 151.052 59.8714 152.727 56.8502H158.584C156.907 61.487 152.503 66.5802 143.184 66.5802C132.018 66.5802 126.942 58.421 126.942 50.2282C126.942 40.8174 133.208 33.6914 143.039 33.6914C154.869 33.6914 159.038 42.3574 159.038 49.9566C159.038 50.483 159.038 50.8918 159.018 51.4966H132.819ZM152.931 47.333C152.662 43.6286 150.697 38.2526 142.997 38.2526C136.61 38.2526 133.482 42.2398 132.942 47.333H152.931Z" fill="white"/>
<path d="M166.506 19.4199H172.364V39.3671C173.923 36.9535 177.258 33.6915 183.922 33.6915C192.627 33.6915 198.916 40.5095 198.916 49.5927C198.916 60.0311 192.426 66.5802 183.561 66.5802C176.877 66.5802 173.831 63.6907 172.227 60.8879C172.185 62.4027 172.165 64.6231 172.061 65.7179H166.445C166.506 61.7699 166.506 58.5527 166.506 54.9995V19.4199ZM192.874 49.7943C192.874 44.4799 189.861 38.6139 182.64 38.6139C175.419 38.6139 172.115 43.5923 172.115 50.0855C172.115 57.1723 176.189 61.6187 182.643 61.6187C189.931 61.6187 192.874 55.9347 192.874 49.7943Z" fill="white"/>
<path d="M206.61 43.0266C206.61 40.2154 206.61 37.365 206.548 34.5538H212.244C212.344 35.4722 212.468 38.751 212.468 41.5678C214.484 36.791 218.994 33.6522 225.079 33.711V39.3166C217.916 39.2354 212.468 43.5362 212.468 52.7146V65.7178H206.61V43.0266Z" fill="white"/>
<path d="M234.3 51.4966C234.63 57.4774 238.659 61.8594 244.976 61.8594C249.845 61.8594 252.533 59.8714 254.208 56.8502H260.065C258.388 61.487 253.984 66.5802 244.665 66.5802C233.499 66.5802 228.422 58.421 228.422 50.2282C228.422 40.8174 234.689 33.6914 244.52 33.6914C256.35 33.6914 260.519 42.3574 260.519 49.9566C260.519 50.483 260.519 50.8918 260.499 51.4966H234.3ZM254.415 47.333C254.146 43.6286 252.18 38.2526 244.48 38.2526C238.094 38.2526 234.966 42.2398 234.426 47.333H254.415Z" fill="white"/>
<path d="M296.698 56.629C296.698 59.667 296.678 62.6826 296.74 65.7178H291.087C290.964 64.8554 290.88 62.6434 290.86 60.4482C289.3 63.9818 286.5 66.5802 279.682 66.5802C272.864 66.5802 267.964 62.9738 267.964 53.8878V34.5538H273.822V52.8126C273.822 57.525 275.676 61.6158 281.27 61.6158C287.982 61.6158 290.838 57.7126 290.838 48.6406V34.5538H296.695V56.629H296.698Z" fill="white"/>
<path d="M309.592 56.2846C310.706 59.9694 313.87 62.1198 319.507 62.1198C325.499 62.1198 327.613 60.0282 327.613 57.2506C327.613 54.6466 326.047 52.8798 318.132 51.9334C307.178 50.567 305.115 46.7422 305.115 42.8642C305.115 38.9862 308.326 33.6914 318.3 33.6914C329.085 33.6914 332.123 39.2606 332.451 42.9986H326.568C326.095 41.1226 324.818 38.0734 317.972 38.0734C312.201 38.0734 310.978 40.5598 310.978 42.3406C310.978 44.6618 312.445 46.0506 319.574 46.997C331.286 48.5678 333.473 52.1854 333.473 56.8082C333.473 62.4082 329.206 66.5802 319.143 66.5802C310.062 66.5802 304.759 62.7386 303.689 56.2846H309.592Z" fill="white"/>
<defs>
<linearGradient id="paint0_linear_343_685" x1="54.5173" y1="58.5665" x2="10.4393" y2="14.7278" gradientUnits="userSpaceOnUse">
<stop stop-color="#E9BF5D"/>
<stop offset="1" stop-color="#F0D381"/>
</linearGradient>
</defs>
</svg>
